<?xml version="1.0" encoding="UTF-8"?>
<svg xmlns="http://www.w3.org/2000/svg" viewBox="0 0 241.28 241.28">
  <defs>
    <style>
      .cls-1 {
        fill: #231815;
      }

      .cls-1, .cls-2, .cls-3 {
        stroke-width: 0px;
      }

      .cls-2 {
        fill: #e6002c;
      }

      .cls-4 {
        fill: none;
        stroke-width: 8px;
      }

      .cls-4, .cls-5 {
        stroke: #231815;
        stroke-miterlimit: 10;
      }

      .cls-3 {
        fill: #d7132c;
      }

      .cls-5 {
        fill: #fff;
      }
    </style>
  </defs>
  <g id="_レイヤー_2" data-name="レイヤー 2">
    <rect class="cls-5" width="241.28" height="241.28"/>
  </g>
  <g id="_レイヤー_1" data-name="レイヤー 1">
    <path class="cls-4" d="M82.91,63.48c-1.07,3.58-2.46,8.52-3.91,14.47-1.45,5.97-2.43,9.96-3.22,15.26-.7,4.66-.94,8.92-1.38,17.24-.35,6.53-.48,11.17-.69,19.03-.28,10.16-.41,15.34-.28,20.14.12,4.33.28,9.53,1.1,16.27.48,3.95.68,4.22,2.76,15.72,2.19,12.11,2.43,14.36,4.14,23.03.84,4.26,1.57,7.75,2.07,10.07"/>
    <path class="cls-4" d="M78.7,79.19c2.59-1.04,10.32-5.01,12.53-5.93,5.03-2.07,6.03-2.21,7.87-2.73,2.37-.67,4.17-.82,7.68-.94,2.35-.08,4.37-.01,8.32.12,6.61.23,9.92.34,10.16.37,5.17.53,9.06,1.56,12.36,2.45,4.93,1.32,7.42,2.4,8.08,2.69,1.37.6,3.42,1.53,5.88,3.18,3.12,2.11,5.14,4.22,5.88,5.02,0,0,2.55,2.77,4.28,5.88,5.22,9.34,1.48,23.32,1.22,24.24-.89,3.19-3.61,11.4-11.14,18.48-5.38,5.06-10.58,7.07-18.61,10.16-7.1,2.74-12.79,3.94-23.87,6.24-10.34,2.15-15.28,2.88-16.77,3.06-6.42.77-11.85.96-15.79.98"/>
    <path class="cls-4" d="M99.52,215.25c2.19-2.54,5.23-6.46,8.02-11.72,2.76-5.2,8.25-15.89,7.12-29.83-.29-3.56-.74-9.87-4.53-16.7-1.47-2.65-3.04-4.65-4.21-6"/>
    <path class="cls-1" d="M135.92,103.2h3.81c.46,0,1.23-.16,1.66,0,.25.05.31.03.18-.05.05.25.07.51.05.77.08,2.35.04,4.72,0,7.07-.07,4.11-.19,8.72-2.65,12.21-.54.76-1.19,1.46-1.96,1.99-.83.58-1.46.92-2.21.05-1.2-1.37-1.7-3.71-2.02-5.45-.75-4.1-.1-8.38,1.79-12.09.7-1.38-2.22-1.26-2.74-.23-1.82,3.55-2.56,7.52-2.17,11.49.29,2.89,1.26,8.5,4.95,8.82s6.96-3.4,8.28-6.47c1.73-4.03,1.67-8.61,1.68-12.92,0-1.34,0-2.68-.01-4.02,0-.83.2-2-.47-2.64-.71-.67-1.93-.46-2.82-.46h-4.28c-.65,0-1.59.19-1.9.86-.27.6.24,1.08.85,1.08h0Z"/>
    <path class="cls-1" d="M134.41,88.67c0,1.59,0,3.19,0,4.78,0,.18.44.23.52.24.34.03.74-.04,1.06-.13s.7-.21.99-.42c.16-.12.33-.24.33-.47,0-1.59,0-3.19,0-4.78,0-.18-.44-.23-.52-.24-.34-.03-.74.04-1.06.13s-.7.21-.99.42c-.16.12-.33.24-.33.47h0Z"/>
    <path class="cls-1" d="M144.06,88.71v4c0,.28.07.47.33.63s.67.2.97.17c.38-.05.78-.16,1.09-.39.21-.16.53-.41.53-.7v-4c0-.28-.07-.47-.33-.63s-.67-.2-.97-.17c-.38.05-.78.16-1.09.39-.21.16-.53.41-.53.7h0Z"/>
    <path class="cls-1" d="M120.41,169.66c14.25-3.95,28.09-10.11,41-17.27,1.73-.96.15-2.27-1.23-1.5-12.68,7.04-26.25,13.12-40.24,17-.51.14-1.39.61-1.21,1.28s1.19.64,1.69.5h0Z"/>
    <path class="cls-1" d="M160.46,150.37c-1.35-.06-2.28-1.7-2.36-2.89-.1-1.53.81-3.03,2.05-3.87,2.53-1.71,6.48-1.57,9.24-.6s5.06,3.05,6.05,5.8c.42,1.16,1.03,3.33-.19,4.19-.96.67-2.35.84-3.49.92-3.21.22-6.5-.46-9.5-1.57-.63-.23-1.48-.03-2.04.31-.33.19-.94.76-.29,1,3.64,1.35,7.63,2.05,11.52,1.68,1.9-.18,3.9-.65,5.56-1.64,1.85-1.09,2.08-2.82,1.6-4.78-2.06-8.42-13.91-10.08-20.35-5.92-1.8,1.16-3.31,3.16-3.04,5.42.25,2.1,2.09,3.35,4.07,3.43.57.02,1.6-.23,1.92-.76.34-.57-.3-.7-.75-.72h0Z"/>
    <path class="cls-1" d="M181.7,140.74c1.09.65,2.01,1.55,2.71,2.61l-.09-.14c.45.69.79,1.44,1.02,2.22.06.21.36.28.54.31.34.05.75,0,1.07-.1s.7-.22.98-.45c.15-.12.38-.31.31-.53-.6-2.05-1.99-3.88-3.82-4.98-.55-.33-1.33-.17-1.89.06-.27.11-.62.26-.79.5-.09.13-.22.38-.02.5h0Z"/>
    <path class="cls-1" d="M186.55,138.54c-.24.06-.48.09-.72.1h.07c-.25-.01-.06,0,0,.02-.13-.04.05.03.08.04.07.04.14.08.21.13.25.18.47.4.66.64l-.08-.1c.89,1.12,1.6,2.43,2.17,3.74.08.17.36.18.51.19.34.01.73-.06,1.06-.15s.7-.2.99-.4c.11-.07.42-.25.34-.42-.5-1.13-1.1-2.21-1.8-3.23-.32-.46-.67-.95-1.15-1.26-.75-.5-1.75-.39-2.57-.15-.34.1-.69.21-.99.4-.1.06-.39.25-.34.42s.38.19.51.19c.35,0,.72-.05,1.06-.15h0Z"/>
    <g>
      <path class="cls-2" d="M182.99,68.49c.7-4.29-.12-9.23-.03-13.58.04-1.81-.02-3.64.47-5.38,1.33-4.71,6.54-7.5,11.43-7.46,2.5.02,5.28.86,6.44,3.07,1.45,2.76-.31,6.12-2.38,8.45-4.83,5.46-11.58,9.06-15.94,14.9"/>
      <path class="cls-1" d="M184.44,68.31c.75-5-.11-10.13,0-15.16.05-2.3.34-4.52,1.75-6.41,1.12-1.51,2.75-2.61,4.52-3.23,3.32-1.17,9.13-.84,9.65,3.64s-4.54,8.4-7.58,10.94c-3.9,3.26-8.02,6.29-11.13,10.38-.42.56.36.84.79.86.66.04,1.5-.25,1.91-.79,3.23-4.25,7.68-7.29,11.69-10.75,3.2-2.76,8.29-7.14,7.13-11.96s-7.42-5.01-11.22-4.21c-4.1.87-8.22,3.38-9.74,7.46-1.06,2.86-.76,6.36-.63,9.36.15,3.42.49,6.84-.03,10.24-.17,1.13,2.75.63,2.9-.36h0Z"/>
    </g>
    <g>
      <path class="cls-3" d="M178.39,81.35c-.45-1.33-.91-2.71-.79-4.11s.98-2.84,2.34-3.18c.72-.18,1.48-.04,2.21.11.74.14,1.53.32,2.03.88.45.5.58,1.21.62,1.88.07,1.17-.05,2.39-.62,3.41s-1.65,1.82-2.82,1.81-2.97.38-2.97-.79"/>
      <path class="cls-1" d="M179.83,80.96c-.53-1.56-1.15-3.29-.58-4.93.1-.28.22-.53.39-.78.05-.08.11-.15.17-.23,0-.01.13-.15.04-.05.05-.05.11-.1.16-.15.04-.04.09-.07.13-.1.07-.05.06-.05-.04.03,0-.06.31-.08-.03,0,.26-.06-.02,0-.06,0,.23-.08.06-.01,0,0-.2.02.1,0,.15,0,.32,0,.82.11,1.21.19.6.12,1.29.28,1.64.9s.38,1.5.36,2.2c-.02.79-.17,1.65-.56,2.35-.15.27-.37.55-.53.7-.06.06-.12.1-.19.16-.28.24.1-.05-.08.06-.04.02-.26.15-.1.06.2-.1-.36.08-.09.04.04,0,.36-.06.17-.05-.1.01-.08.01.07,0-.06,0-.11,0-.17,0-.16,0-.31,0-.47.01-.33.02-.66.04-.99.04-.06,0-.13,0-.19,0-.28,0,.04.02-.04,0-.05-.01-.11-.02-.17-.03-.08-.02-.05,0,.07.02-.04-.01-.07-.02-.1-.04-.03-.02-.15-.1-.06-.03.13.1-.11-.14-.04-.05.05.07-.02-.05-.03-.07-.02-.09-.04-.18-.04-.27,0-.22-.41-.33-.55-.36-.34-.06-.75-.02-1.08.08-.49.14-1.29.44-1.27,1.06.07,1.67,2.95,1.22,4.02,1.18,2.48-.11,4.68-1.74,5.17-4.22.19-.96.22-2.08-.01-3.04-.26-1.06-1.05-1.69-2.07-1.99-2.37-.7-5.22-.71-6.92,1.36s-.93,4.54-.19,6.71c.19.56,1.21.4,1.63.28.34-.1,1.46-.5,1.27-1.06h0Z"/>
    </g>
  </g>
</svg>